<?xml version="1.0" standalone="no"?>
<!DOCTYPE svg PUBLIC "-//W3C//DTD SVG 20010904//EN"
 "http://www.w3.org/TR/2001/REC-SVG-20010904/DTD/svg10.dtd">
<svg version="1.0" xmlns="http://www.w3.org/2000/svg"
 width="512.000000pt" height="512.000000pt" viewBox="0 0 512.000000 512.000000"
 preserveAspectRatio="xMidYMid meet">
<metadata>
Created by potrace 1.16, written by Peter Selinger 2001-2019
</metadata>
<g transform="translate(0.000000,512.000000) scale(0.100000,-0.100000)"
fill="#000000" stroke="none">
<path d="M2440 4900 l0 -220 -475 0 c-511 0 -524 -1 -559 -51 -14 -20 -16 -62
-16 -321 l0 -298 -115 0 c-92 0 -125 -4 -172 -21 -79 -30 -162 -113 -192 -192
-21 -56 -21 -70 -21 -625 l0 -568 -311 -139 c-337 -151 -359 -165 -359 -233 0
-22 134 -439 325 -1012 179 -536 325 -978 325 -982 0 -5 -15 -8 -32 -8 -74 1
-176 32 -316 98 -81 39 -169 77 -197 86 -57 18 -170 36 -232 36 l-43 0 0 -114
0 -114 31 -6 c17 -3 46 -6 63 -6 60 0 151 -31 281 -95 191 -94 240 -107 423
-113 221 -7 293 9 507 114 165 80 229 97 370 97 136 -1 209 -18 336 -83 210
-106 300 -130 498 -130 195 0 271 20 486 126 142 70 211 87 350 87 139 -1 209
-18 345 -87 213 -108 313 -131 536 -124 178 6 229 20 419 113 130 64 221 95
281 95 17 0 46 3 63 6 l31 6 0 114 0 114 -42 0 c-63 0 -176 -18 -233 -36 -27
-9 -116 -47 -197 -86 -140 -66 -242 -97 -315 -98 -18 0 -33 3 -33 8 0 4 146
446 325 982 191 573 325 990 325 1012 0 68 -22 82 -359 233 l-310 139 -3 586
-3 585 -27 50 c-36 70 -112 137 -181 164 -47 17 -80 21 -172 21 l-115 0 0 298
c0 259 -2 301 -16 321 -35 50 -48 51 -559 51 l-475 0 0 220 0 220 -120 0 -120
0 0 -220z m1060 -670 l0 -220 -940 0 -940 0 0 220 0 220 940 0 940 0 0 -220z
m435 -464 c66 -28 65 -20 63 -565 l-3 -490 -699 314 c-508 229 -709 315 -736
315 -27 0 -228 -86 -736 -315 l-699 -314 -3 490 c-2 542 -3 536 61 564 48 21
2701 22 2752 1z m-1497 -846 l-3 -121 -941 -433 -941 -432 -37 114 c-21 62
-36 115 -34 116 9 7 1944 875 1951 876 4 0 6 -54 5 -120z m1237 -322 c528
-238 962 -433 963 -434 2 -1 -13 -54 -34 -116 l-37 -114 -941 432 -941 433 -3
122 c-2 113 -1 121 15 115 10 -4 450 -201 978 -438z m-1235 -718 l0 -660 120
0 120 0 0 661 c0 525 3 660 13 656 53 -22 1784 -820 1789 -826 7 -6 -463
-1435 -475 -1447 -2 -2 -58 22 -124 55 -66 32 -152 70 -190 84 -158 57 -405
62 -568 11 -27 -9 -115 -47 -195 -84 -170 -81 -240 -100 -371 -100 -125 0
-217 24 -355 93 -193 96 -308 127 -479 127 -172 0 -276 -28 -487 -130 -67 -33
-124 -58 -125 -56 -2 2 -112 327 -244 722 -205 617 -237 720 -224 729 18 12
1777 823 1788 824 4 1 7 -296 7 -659z"/>
<path d="M1780 4230 l0 -120 115 0 115 0 0 120 0 120 -115 0 -115 0 0 -120z"/>
<path d="M2110 4230 l0 -120 115 0 115 0 0 120 0 120 -115 0 -115 0 0 -120z"/>
<path d="M2440 4230 l0 -120 120 0 120 0 0 120 0 120 -120 0 -120 0 0 -120z"/>
<path d="M2780 4230 l0 -120 115 0 115 0 0 120 0 120 -115 0 -115 0 0 -120z"/>
<path d="M3110 4230 l0 -120 115 0 115 0 0 120 0 120 -115 0 -115 0 0 -120z"/>
<path d="M1330 3505 l0 -115 1230 0 1230 0 0 115 0 115 -1230 0 -1230 0 0
-115z"/>
<path d="M1330 3175 l0 -115 115 0 115 0 0 115 0 115 -115 0 -115 0 0 -115z"/>
<path d="M3560 3175 l0 -115 115 0 115 0 0 115 0 115 -115 0 -115 0 0 -115z"/>
</g>
</svg>
